<?xml version="1.0" encoding="UTF-8"?>
<!DOCTYPE svg PUBLIC "-//W3C//DTD SVG 1.1//EN" "http://www.w3.org/Graphics/SVG/1.1/DTD/svg11.dtd">
<!-- Creator: CorelDRAW X7 -->
<svg xmlns="http://www.w3.org/2000/svg" xml:space="preserve" width="18.6266mm" height="6.7732mm" version="1.1" style="shape-rendering:geometricPrecision; text-rendering:geometricPrecision; image-rendering:optimizeQuality; fill-rule:evenodd; clip-rule:evenodd"
viewBox="0 0 1863 677"
 xmlns:xlink="http://www.w3.org/1999/xlink">
 <defs>
  <style type="text/css">
   <![CDATA[
    .fil0 {fill:#FEFEFE;fill-rule:nonzero}
    .fil1 {fill:#F71467;fill-rule:nonzero}
   ]]>
  </style>
 </defs>
 <g id="Layer_x0020_1">
  <metadata id="CorelCorpID_0Corel-Layer"/>
  <path class="fil0" d="M314 273l0 134 -42 0 0 -309 106 0c34,0 60,7 78,22 18,15 27,37 27,66 0,16 -4,29 -13,41 -8,12 -20,21 -36,28 17,6 29,15 37,27 7,13 11,28 11,46l0 30c0,9 1,18 3,26 2,7 6,13 11,18l0 5 -43 0c-5,-4 -9,-11 -10,-21 -2,-9 -3,-19 -3,-29l0 -28c0,-17 -5,-30 -14,-41 -10,-10 -23,-15 -40,-15l-72 0zm0 -33l60 0c24,0 41,-4 51,-13 11,-9 16,-23 16,-42 0,-17 -5,-31 -15,-40 -10,-10 -26,-15 -48,-15l-64 0 0 110z"/>
  <polygon id="1" class="fil0" points="719,264 592,264 592,375 741,375 741,407 550,407 550,97 738,97 738,130 592,130 592,231 719,231 "/>
  <polygon id="2" class="fil0" points="1025,407 983,407 834,171 832,171 832,407 790,407 790,97 832,97 982,334 983,334 983,97 1025,97 "/>
  <path id="3" class="fil0" d="M1262 328l-117 0 -28 79 -43 0 112 -310 36 0 110 310 -43 0 -27 -79zm-105 -36l93 0 -46 -133 -1 0 -46 133z"/>
  <polygon id="4" class="fil0" points="1612,407 1570,407 1420,171 1419,171 1419,407 1377,407 1377,97 1419,97 1568,334 1570,334 1570,97 1612,97 "/>
  <polygon class="fil0" points="331,541 334,553 335,553 338,541 376,433 397,433 343,580 326,580 272,433 293,433 "/>
  <polygon id="1" class="fil0" points="548,512 488,512 488,564 558,564 558,580 468,580 468,433 557,433 557,449 488,449 488,496 548,496 "/>
  <polygon id="2" class="fil0" points="744,580 724,580 653,468 653,468 653,580 633,580 633,433 653,433 723,545 724,545 724,433 744,433 "/>
  <path id="3" class="fil0" d="M905 542l-55 0 -14 38 -20 0 53 -147 17 0 52 147 -20 0 -13 -38zm-50 -17l44 0 -21 -63 -1 0 -22 63z"/>
  <polygon id="4" class="fil0" points="1121,580 1101,580 1031,468 1030,468 1030,580 1011,580 1011,433 1030,433 1101,545 1101,545 1101,433 1121,433 "/>
  <path id="5" class="fil0" d="M1311 533l1 0c0,14 -5,26 -15,35 -10,9 -23,14 -39,14 -17,0 -30,-6 -41,-18 -10,-12 -15,-27 -15,-45l0 -26c0,-18 5,-33 15,-44 11,-12 24,-18 41,-18 16,0 29,4 39,13 10,9 15,21 15,35l-1 1 -19 0c0,-10 -3,-18 -9,-24 -6,-6 -14,-9 -25,-9 -11,0 -20,4 -27,13 -6,9 -10,20 -10,33l0 26c0,14 4,25 10,34 7,9 16,13 27,13 11,0 19,-3 25,-9 6,-6 9,-14 9,-24l19 0z"/>
  <polygon id="6" class="fil0" points="1410,580 1390,580 1390,433 1410,433 "/>
  <path id="7" class="fil0" d="M1610 519c0,18 -6,33 -17,45 -11,12 -25,18 -43,18 -17,0 -31,-6 -42,-18 -10,-12 -16,-27 -16,-45l0 -26c0,-17 6,-32 16,-44 11,-12 25,-18 42,-18 18,0 32,6 43,18 11,12 17,27 17,44l0 26zm-20 -26c0,-13 -4,-24 -11,-33 -7,-8 -17,-13 -29,-13 -12,0 -21,5 -28,13 -7,9 -10,20 -10,33l0 26c0,14 3,25 10,34 7,8 16,13 28,13 12,0 22,-5 29,-13 7,-9 11,-20 11,-34l0 -26z"/>
  <path class="fil1" d="M50 315c11,0 20,-2 28,-6 8,-4 14,-8 19,-15 5,-6 9,-13 12,-20 2,-8 3,-16 3,-24l0 -121c0,-19 2,-35 6,-50 4,-14 11,-26 21,-36 10,-9 23,-17 40,-22 16,-5 36,-7 60,-7l3 0 0 49c-25,0 -44,4 -55,13 -11,10 -16,27 -16,53l0 104c0,29 -4,52 -12,69 -8,16 -19,28 -33,37 14,9 25,22 33,38 8,16 12,39 12,69l0 103c0,26 5,44 16,53 11,9 30,14 55,14l0 49 -3 0c-24,0 -44,-3 -60,-8 -17,-4 -30,-12 -40,-22 -10,-10 -17,-22 -21,-36 -4,-14 -6,-31 -6,-49l0 -121c0,-8 -1,-16 -3,-24 -3,-8 -7,-15 -12,-21 -5,-6 -11,-11 -19,-15 -8,-4 -17,-6 -28,-6l0 -48z"/>
  <path class="fil1" d="M1830 315c-11,0 -20,-2 -27,-6 -8,-4 -15,-9 -20,-15 -5,-6 -9,-13 -11,-21 -3,-8 -4,-16 -4,-24l0 -121c0,-18 -2,-35 -6,-49 -4,-14 -11,-26 -21,-36 -10,-10 -23,-17 -39,-22 -16,-5 -37,-8 -61,-8l-3 0 0 49c26,0 44,5 55,14 11,9 17,27 17,53l0 103c0,30 4,53 11,69 8,16 19,29 34,38 -15,9 -26,21 -34,37 -7,17 -11,39 -11,69l0 104c0,26 -6,43 -17,53 -11,9 -29,13 -55,13l0 49 3 0c24,0 45,-2 61,-7 16,-5 29,-12 39,-22 10,-10 17,-22 21,-37 4,-14 6,-30 6,-49l0 -121c0,-8 1,-16 4,-24 2,-7 6,-14 11,-20 5,-7 12,-11 20,-15 7,-4 16,-6 27,-6l0 -48z"/>
 </g>
</svg>
